<?xml version="1.0" standalone="no"?>
<!DOCTYPE svg PUBLIC "-//W3C//DTD SVG 20010904//EN"
 "http://www.w3.org/TR/2001/REC-SVG-20010904/DTD/svg10.dtd">
<svg version="1.0" xmlns="http://www.w3.org/2000/svg"
 width="700.000000pt" height="700.000000pt" viewBox="0 0 700.000000 700.000000"
 preserveAspectRatio="xMidYMid meet">
<metadata>
Created by potrace 1.11, written by Peter Selinger 2001-2013
</metadata>
<g transform="translate(0.000000,700.000000) scale(0.100000,-0.100000)"
fill="#000000" stroke="none">
<path d="M3250 6994 c-477 -43 -868 -147 -1265 -338 -1125 -541 -1876 -1635
-1976 -2881 -14 -183 -6 -552 16 -715 109 -801 455 -1496 1021 -2052 396 -390
847 -664 1374 -837 1114 -364 2347 -140 3261 593 720 577 1175 1387 1294 2307
23 172 30 521 16 705 -100 1245 -851 2339 -1976 2880 -342 164 -700 270 -1085
320 -119 15 -574 27 -680 18z m427 -244 c470 -29 892 -141 1294 -346 751 -382
1329 -1043 1604 -1834 331 -954 202 -2005 -351 -2850 -442 -675 -1136 -1173
-1909 -1370 -319 -81 -538 -105 -898 -97 -397 9 -701 66 -1055 198 -980 367
-1732 1191 -2005 2199 -128 470 -146 995 -51 1484 133 683 510 1341 1034 1801
556 488 1235 771 1960 814 185 12 201 12 377 1z"/>
<path d="M3060 3953 l-2105 -2108 1185 -3 c652 -2 1600 0 2108 4 l922 6 0
2104 c0 1157 -1 2104 -3 2104 -2 0 -950 -948 -2107 -2107z"/>
</g>
</svg>
